<svg width="1119" height="968" viewBox="0 0 1119 968" fill="none" xmlns="http://www.w3.org/2000/svg">
<g opacity="0.6" clip-path="url(#clip0_297_615)">
<path d="M1007.49 611.672C946.116 682.159 824.91 590.97 649.288 630.879C497.18 665.461 488.429 757.318 366.897 752.763C278.108 749.453 181.355 698.185 128.182 608.868C69.5421 510.389 90.859 410.13 96.8427 385.801C123.555 276.677 202.841 219.113 230.811 199.453C346.051 118.5 475.365 132.686 537.403 139.461C770.439 164.983 1019.92 331.357 1031.03 512.239C1032.51 535.919 1035.2 579.841 1007.49 611.672Z" fill="url(#paint0_linear_297_615)"/>
</g>
<defs>
<linearGradient id="paint0_linear_297_615" x1="422.715" y1="898.113" x2="656.956" y2="192.305" gradientUnits="userSpaceOnUse">
<stop stop-color="#F3F7FF"/>
<stop offset="1" stop-color="#DEEEFE"/>
</linearGradient>
<clipPath id="clip0_297_615">
<rect width="937.962" height="671.376" fill="white" transform="translate(872.961 967.94) rotate(-158.544)"/>
</clipPath>
</defs>
</svg>
